<svg width="576" height="745" viewBox="0 0 576 745" fill="none" xmlns="http://www.w3.org/2000/svg">
<path d="M118.363 396.845C102.739 397.63 90.3466 410.145 89.7036 425.787L81.4986 625.385C80.5792 647.752 103.285 663.617 123.868 654.99L472.134 509.01C483.48 504.254 490.784 493.095 490.631 480.752L489.754 410.095C489.538 392.725 474.877 378.937 457.547 379.807L433.331 381.024L118.363 396.845Z" fill="#08090A"/>
<path d="M457.095 347.846C472.719 347.061 485.112 334.546 485.755 318.904L493.96 119.306C494.879 96.939 472.173 81.0738 451.59 89.7013L103.324 235.681C91.9785 240.437 84.6744 251.595 84.8277 263.939L85.7049 334.596C85.9205 351.966 100.582 365.754 117.911 364.884L142.127 363.667L457.095 347.846Z" fill="#08090A"/>
</svg>
